<mxfile host="Electron" modified="2024-02-25T09:25:14.294Z" agent="Mozilla/5.0 (Windows NT 10.0; Win64; x64) AppleWebKit/537.36 (KHTML, like Gecko) draw.io/23.1.5 Chrome/120.0.6099.109 Electron/28.1.0 Safari/537.36" etag="3pk4Urs2Gi0Xzs6k_MAO" version="23.1.5" type="device">
  <diagram name="Страница — 1" id="JOfBKeXWNwg54quxajjs">
    <mxGraphModel dx="1095" dy="1285" grid="1" gridSize="10" guides="1" tooltips="1" connect="1" arrows="1" fold="1" page="1" pageScale="1" pageWidth="827" pageHeight="1169" math="0" shadow="0">
      <root>
        <mxCell id="0" />
        <mxCell id="1" parent="0" />
        <mxCell id="7pB_DVC5GZfGuAv-ibYx-2" style="edgeStyle=orthogonalEdgeStyle;rounded=0;orthogonalLoop=1;jettySize=auto;html=1;exitX=0.5;exitY=1;exitDx=0;exitDy=0;" edge="1" parent="1" source="7pB_DVC5GZfGuAv-ibYx-1" target="7pB_DVC5GZfGuAv-ibYx-3">
          <mxGeometry relative="1" as="geometry">
            <mxPoint x="360.33333333333337" y="120" as="targetPoint" />
          </mxGeometry>
        </mxCell>
        <mxCell id="7pB_DVC5GZfGuAv-ibYx-1" value="void desk_place(int n)&amp;nbsp;" style="ellipse;whiteSpace=wrap;html=1;" vertex="1" parent="1">
          <mxGeometry x="270" y="40" width="180" height="40" as="geometry" />
        </mxCell>
        <mxCell id="7pB_DVC5GZfGuAv-ibYx-4" style="edgeStyle=orthogonalEdgeStyle;rounded=0;orthogonalLoop=1;jettySize=auto;html=1;exitX=0.5;exitY=1;exitDx=0;exitDy=0;" edge="1" parent="1" source="7pB_DVC5GZfGuAv-ibYx-3">
          <mxGeometry relative="1" as="geometry">
            <mxPoint x="360" y="160" as="targetPoint" />
          </mxGeometry>
        </mxCell>
        <mxCell id="7pB_DVC5GZfGuAv-ibYx-3" value="int x = desk[1][n];" style="rounded=1;whiteSpace=wrap;html=1;absoluteArcSize=1;arcSize=14;strokeWidth=2;" vertex="1" parent="1">
          <mxGeometry x="310.33333333333337" y="100" width="100" height="40" as="geometry" />
        </mxCell>
        <mxCell id="7pB_DVC5GZfGuAv-ibYx-11" style="edgeStyle=orthogonalEdgeStyle;rounded=0;orthogonalLoop=1;jettySize=auto;html=1;exitX=0;exitY=0.5;exitDx=0;exitDy=0;exitPerimeter=0;" edge="1" source="7pB_DVC5GZfGuAv-ibYx-13" parent="1">
          <mxGeometry relative="1" as="geometry">
            <mxPoint x="220.09" y="230" as="targetPoint" />
          </mxGeometry>
        </mxCell>
        <mxCell id="7pB_DVC5GZfGuAv-ibYx-12" style="edgeStyle=orthogonalEdgeStyle;rounded=0;orthogonalLoop=1;jettySize=auto;html=1;exitX=1;exitY=0.5;exitDx=0;exitDy=0;exitPerimeter=0;" edge="1" source="7pB_DVC5GZfGuAv-ibYx-13" parent="1">
          <mxGeometry relative="1" as="geometry">
            <mxPoint x="360" y="480" as="targetPoint" />
            <Array as="points">
              <mxPoint x="480" y="190" />
              <mxPoint x="480" y="480" />
            </Array>
          </mxGeometry>
        </mxCell>
        <mxCell id="7pB_DVC5GZfGuAv-ibYx-13" value="if (n != 0)" style="strokeWidth=2;html=1;shape=mxgraph.flowchart.decision;whiteSpace=wrap;" vertex="1" parent="1">
          <mxGeometry x="260.00000000000006" y="160" width="200" height="60" as="geometry" />
        </mxCell>
        <mxCell id="7pB_DVC5GZfGuAv-ibYx-14" value="1" style="text;html=1;strokeColor=none;fillColor=none;align=center;verticalAlign=middle;whiteSpace=wrap;rounded=0;" vertex="1" parent="1">
          <mxGeometry x="230.09" y="160" width="30" height="30" as="geometry" />
        </mxCell>
        <mxCell id="7pB_DVC5GZfGuAv-ibYx-15" value="0" style="text;html=1;strokeColor=none;fillColor=none;align=center;verticalAlign=middle;whiteSpace=wrap;rounded=0;" vertex="1" parent="1">
          <mxGeometry x="460.09000000000003" y="160" width="30" height="30" as="geometry" />
        </mxCell>
        <mxCell id="7pB_DVC5GZfGuAv-ibYx-16" style="edgeStyle=orthogonalEdgeStyle;rounded=0;orthogonalLoop=1;jettySize=auto;html=1;exitX=0.5;exitY=1;exitDx=0;exitDy=0;" edge="1" source="7pB_DVC5GZfGuAv-ibYx-18" parent="1">
          <mxGeometry relative="1" as="geometry">
            <mxPoint x="220" y="310" as="targetPoint" />
          </mxGeometry>
        </mxCell>
        <mxCell id="7pB_DVC5GZfGuAv-ibYx-17" style="edgeStyle=orthogonalEdgeStyle;rounded=0;orthogonalLoop=1;jettySize=auto;html=1;exitX=1;exitY=0.5;exitDx=0;exitDy=0;" edge="1" source="7pB_DVC5GZfGuAv-ibYx-18" parent="1">
          <mxGeometry relative="1" as="geometry">
            <mxPoint x="360" y="480" as="targetPoint" />
            <Array as="points">
              <mxPoint x="360" y="250" />
            </Array>
          </mxGeometry>
        </mxCell>
        <mxCell id="7pB_DVC5GZfGuAv-ibYx-18" value="for (int i = 0; i &amp;lt; 8; ++i)" style="verticalLabelPosition=middle;verticalAlign=middle;html=1;shape=hexagon;perimeter=hexagonPerimeter2;arcSize=6;size=0.15;labelPosition=center;align=center;" vertex="1" parent="1">
          <mxGeometry x="120" y="230" width="200" height="40" as="geometry" />
        </mxCell>
        <mxCell id="7pB_DVC5GZfGuAv-ibYx-19" value="1" style="text;html=1;strokeColor=none;fillColor=none;align=center;verticalAlign=middle;whiteSpace=wrap;rounded=0;" vertex="1" parent="1">
          <mxGeometry x="190" y="270" width="30" height="30" as="geometry" />
        </mxCell>
        <mxCell id="7pB_DVC5GZfGuAv-ibYx-20" value="{" style="text;html=1;strokeColor=none;fillColor=none;align=center;verticalAlign=middle;whiteSpace=wrap;rounded=0;" vertex="1" parent="1">
          <mxGeometry x="220" y="270" width="30" height="30" as="geometry" />
        </mxCell>
        <mxCell id="7pB_DVC5GZfGuAv-ibYx-21" value="0" style="text;html=1;strokeColor=none;fillColor=none;align=center;verticalAlign=middle;whiteSpace=wrap;rounded=0;" vertex="1" parent="1">
          <mxGeometry x="320" y="220" width="30" height="30" as="geometry" />
        </mxCell>
        <mxCell id="7pB_DVC5GZfGuAv-ibYx-22" style="edgeStyle=orthogonalEdgeStyle;rounded=0;orthogonalLoop=1;jettySize=auto;html=1;exitX=0.5;exitY=1;exitDx=0;exitDy=0;entryX=0.5;entryY=0;entryDx=0;entryDy=0;" edge="1" source="7pB_DVC5GZfGuAv-ibYx-24" parent="1" target="7pB_DVC5GZfGuAv-ibYx-28">
          <mxGeometry relative="1" as="geometry">
            <mxPoint x="220" y="390" as="targetPoint" />
          </mxGeometry>
        </mxCell>
        <mxCell id="7pB_DVC5GZfGuAv-ibYx-23" style="edgeStyle=orthogonalEdgeStyle;rounded=0;orthogonalLoop=1;jettySize=auto;html=1;exitX=1;exitY=0.5;exitDx=0;exitDy=0;entryX=0;entryY=0.5;entryDx=0;entryDy=0;" edge="1" source="7pB_DVC5GZfGuAv-ibYx-24" parent="1" target="7pB_DVC5GZfGuAv-ibYx-18">
          <mxGeometry relative="1" as="geometry">
            <mxPoint x="360" y="450" as="targetPoint" />
            <Array as="points">
              <mxPoint x="340" y="330" />
              <mxPoint x="340" y="470" />
              <mxPoint x="80" y="470" />
              <mxPoint x="80" y="250" />
            </Array>
          </mxGeometry>
        </mxCell>
        <mxCell id="7pB_DVC5GZfGuAv-ibYx-24" value="for (int j = 0; j &amp;lt; 8; ++j)" style="verticalLabelPosition=middle;verticalAlign=middle;html=1;shape=hexagon;perimeter=hexagonPerimeter2;arcSize=6;size=0.15;labelPosition=center;align=center;" vertex="1" parent="1">
          <mxGeometry x="120" y="310" width="200" height="40" as="geometry" />
        </mxCell>
        <mxCell id="7pB_DVC5GZfGuAv-ibYx-25" value="1" style="text;html=1;strokeColor=none;fillColor=none;align=center;verticalAlign=middle;whiteSpace=wrap;rounded=0;" vertex="1" parent="1">
          <mxGeometry x="190" y="350" width="30" height="30" as="geometry" />
        </mxCell>
        <mxCell id="7pB_DVC5GZfGuAv-ibYx-26" value="{" style="text;html=1;strokeColor=none;fillColor=none;align=center;verticalAlign=middle;whiteSpace=wrap;rounded=0;" vertex="1" parent="1">
          <mxGeometry x="220" y="350" width="30" height="30" as="geometry" />
        </mxCell>
        <mxCell id="7pB_DVC5GZfGuAv-ibYx-27" value="0" style="text;html=1;strokeColor=none;fillColor=none;align=center;verticalAlign=middle;whiteSpace=wrap;rounded=0;" vertex="1" parent="1">
          <mxGeometry x="320" y="300" width="30" height="30" as="geometry" />
        </mxCell>
        <mxCell id="7pB_DVC5GZfGuAv-ibYx-29" style="edgeStyle=orthogonalEdgeStyle;rounded=0;orthogonalLoop=1;jettySize=auto;html=1;exitX=0.5;exitY=1;exitDx=0;exitDy=0;entryX=0;entryY=0.5;entryDx=0;entryDy=0;" edge="1" parent="1" source="7pB_DVC5GZfGuAv-ibYx-28" target="7pB_DVC5GZfGuAv-ibYx-24">
          <mxGeometry relative="1" as="geometry">
            <Array as="points">
              <mxPoint x="220" y="450" />
              <mxPoint x="100" y="450" />
              <mxPoint x="100" y="330" />
            </Array>
          </mxGeometry>
        </mxCell>
        <mxCell id="7pB_DVC5GZfGuAv-ibYx-28" value="desk[i + n * 8 + 2][j] = &lt;br&gt;desk[i + (n - 1) * 8 + 2][j];" style="rounded=1;whiteSpace=wrap;html=1;absoluteArcSize=1;arcSize=14;strokeWidth=2;" vertex="1" parent="1">
          <mxGeometry x="140.32999999999998" y="390" width="159.34" height="40" as="geometry" />
        </mxCell>
        <mxCell id="7pB_DVC5GZfGuAv-ibYx-30" value="" style="endArrow=classic;html=1;rounded=0;" edge="1" parent="1">
          <mxGeometry width="50" height="50" relative="1" as="geometry">
            <mxPoint x="360" y="480" as="sourcePoint" />
            <mxPoint x="360" y="520" as="targetPoint" />
          </mxGeometry>
        </mxCell>
        <mxCell id="7pB_DVC5GZfGuAv-ibYx-31" style="edgeStyle=orthogonalEdgeStyle;rounded=0;orthogonalLoop=1;jettySize=auto;html=1;exitX=0.5;exitY=1;exitDx=0;exitDy=0;" edge="1" source="7pB_DVC5GZfGuAv-ibYx-33" parent="1">
          <mxGeometry relative="1" as="geometry">
            <mxPoint x="360.09000000000003" y="600" as="targetPoint" />
          </mxGeometry>
        </mxCell>
        <mxCell id="7pB_DVC5GZfGuAv-ibYx-32" style="edgeStyle=orthogonalEdgeStyle;rounded=0;orthogonalLoop=1;jettySize=auto;html=1;exitX=1;exitY=0.5;exitDx=0;exitDy=0;" edge="1" source="7pB_DVC5GZfGuAv-ibYx-33" parent="1">
          <mxGeometry relative="1" as="geometry">
            <mxPoint x="360" y="700" as="targetPoint" />
            <Array as="points">
              <mxPoint x="480" y="540" />
              <mxPoint x="480" y="680" />
            </Array>
          </mxGeometry>
        </mxCell>
        <mxCell id="7pB_DVC5GZfGuAv-ibYx-33" value="for (int i = 0; i &amp;lt; 8; ++i)" style="verticalLabelPosition=middle;verticalAlign=middle;html=1;shape=hexagon;perimeter=hexagonPerimeter2;arcSize=6;size=0.15;labelPosition=center;align=center;" vertex="1" parent="1">
          <mxGeometry x="260.09000000000003" y="520" width="200" height="40" as="geometry" />
        </mxCell>
        <mxCell id="7pB_DVC5GZfGuAv-ibYx-34" value="1" style="text;html=1;strokeColor=none;fillColor=none;align=center;verticalAlign=middle;whiteSpace=wrap;rounded=0;" vertex="1" parent="1">
          <mxGeometry x="330.09000000000003" y="560" width="30" height="30" as="geometry" />
        </mxCell>
        <mxCell id="7pB_DVC5GZfGuAv-ibYx-35" value="{" style="text;html=1;strokeColor=none;fillColor=none;align=center;verticalAlign=middle;whiteSpace=wrap;rounded=0;" vertex="1" parent="1">
          <mxGeometry x="360.09000000000003" y="560" width="30" height="30" as="geometry" />
        </mxCell>
        <mxCell id="7pB_DVC5GZfGuAv-ibYx-36" value="0" style="text;html=1;strokeColor=none;fillColor=none;align=center;verticalAlign=middle;whiteSpace=wrap;rounded=0;" vertex="1" parent="1">
          <mxGeometry x="460.09000000000003" y="510" width="30" height="30" as="geometry" />
        </mxCell>
        <mxCell id="7pB_DVC5GZfGuAv-ibYx-38" style="edgeStyle=orthogonalEdgeStyle;rounded=0;orthogonalLoop=1;jettySize=auto;html=1;exitX=0.5;exitY=1;exitDx=0;exitDy=0;entryX=0;entryY=0.5;entryDx=0;entryDy=0;" edge="1" parent="1" source="7pB_DVC5GZfGuAv-ibYx-37" target="7pB_DVC5GZfGuAv-ibYx-33">
          <mxGeometry relative="1" as="geometry">
            <Array as="points">
              <mxPoint x="360" y="660" />
              <mxPoint x="240" y="660" />
              <mxPoint x="240" y="540" />
            </Array>
          </mxGeometry>
        </mxCell>
        <mxCell id="7pB_DVC5GZfGuAv-ibYx-37" value="desk[n + n * 8 + 2][i] = 1;" style="rounded=1;whiteSpace=wrap;html=1;absoluteArcSize=1;arcSize=14;strokeWidth=2;" vertex="1" parent="1">
          <mxGeometry x="280" y="600" width="160" height="40" as="geometry" />
        </mxCell>
        <mxCell id="7pB_DVC5GZfGuAv-ibYx-39" style="edgeStyle=orthogonalEdgeStyle;rounded=0;orthogonalLoop=1;jettySize=auto;html=1;exitX=0.5;exitY=1;exitDx=0;exitDy=0;" edge="1" parent="1" source="7pB_DVC5GZfGuAv-ibYx-41">
          <mxGeometry relative="1" as="geometry">
            <mxPoint x="360.09000000000003" y="780" as="targetPoint" />
          </mxGeometry>
        </mxCell>
        <mxCell id="7pB_DVC5GZfGuAv-ibYx-40" style="edgeStyle=orthogonalEdgeStyle;rounded=0;orthogonalLoop=1;jettySize=auto;html=1;exitX=1;exitY=0.5;exitDx=0;exitDy=0;" edge="1" parent="1" source="7pB_DVC5GZfGuAv-ibYx-41">
          <mxGeometry relative="1" as="geometry">
            <mxPoint x="360" y="880" as="targetPoint" />
            <Array as="points">
              <mxPoint x="480" y="720" />
              <mxPoint x="480" y="860" />
            </Array>
          </mxGeometry>
        </mxCell>
        <mxCell id="7pB_DVC5GZfGuAv-ibYx-41" value="for (int i = 0; i &amp;lt; 8; ++i)" style="verticalLabelPosition=middle;verticalAlign=middle;html=1;shape=hexagon;perimeter=hexagonPerimeter2;arcSize=6;size=0.15;labelPosition=center;align=center;" vertex="1" parent="1">
          <mxGeometry x="260.09000000000003" y="700" width="200" height="40" as="geometry" />
        </mxCell>
        <mxCell id="7pB_DVC5GZfGuAv-ibYx-42" value="1" style="text;html=1;strokeColor=none;fillColor=none;align=center;verticalAlign=middle;whiteSpace=wrap;rounded=0;" vertex="1" parent="1">
          <mxGeometry x="330.09000000000003" y="740" width="30" height="30" as="geometry" />
        </mxCell>
        <mxCell id="7pB_DVC5GZfGuAv-ibYx-43" value="{" style="text;html=1;strokeColor=none;fillColor=none;align=center;verticalAlign=middle;whiteSpace=wrap;rounded=0;" vertex="1" parent="1">
          <mxGeometry x="360.09000000000003" y="740" width="30" height="30" as="geometry" />
        </mxCell>
        <mxCell id="7pB_DVC5GZfGuAv-ibYx-44" value="0" style="text;html=1;strokeColor=none;fillColor=none;align=center;verticalAlign=middle;whiteSpace=wrap;rounded=0;" vertex="1" parent="1">
          <mxGeometry x="460.09000000000003" y="690" width="30" height="30" as="geometry" />
        </mxCell>
        <mxCell id="7pB_DVC5GZfGuAv-ibYx-45" style="edgeStyle=orthogonalEdgeStyle;rounded=0;orthogonalLoop=1;jettySize=auto;html=1;exitX=0.5;exitY=1;exitDx=0;exitDy=0;entryX=0;entryY=0.5;entryDx=0;entryDy=0;" edge="1" parent="1" source="7pB_DVC5GZfGuAv-ibYx-46" target="7pB_DVC5GZfGuAv-ibYx-41">
          <mxGeometry relative="1" as="geometry">
            <Array as="points">
              <mxPoint x="360" y="840" />
              <mxPoint x="240" y="840" />
              <mxPoint x="240" y="720" />
            </Array>
          </mxGeometry>
        </mxCell>
        <mxCell id="7pB_DVC5GZfGuAv-ibYx-46" value="desk[i + n * 8 + 2][x] = 1;" style="rounded=1;whiteSpace=wrap;html=1;absoluteArcSize=1;arcSize=14;strokeWidth=2;" vertex="1" parent="1">
          <mxGeometry x="280" y="780" width="160" height="40" as="geometry" />
        </mxCell>
        <mxCell id="7pB_DVC5GZfGuAv-ibYx-47" style="edgeStyle=orthogonalEdgeStyle;rounded=0;orthogonalLoop=1;jettySize=auto;html=1;exitX=0.5;exitY=1;exitDx=0;exitDy=0;" edge="1" parent="1" source="7pB_DVC5GZfGuAv-ibYx-49">
          <mxGeometry relative="1" as="geometry">
            <mxPoint x="360.09000000000003" y="960" as="targetPoint" />
          </mxGeometry>
        </mxCell>
        <mxCell id="7pB_DVC5GZfGuAv-ibYx-56" style="edgeStyle=orthogonalEdgeStyle;rounded=0;orthogonalLoop=1;jettySize=auto;html=1;exitX=1;exitY=0.5;exitDx=0;exitDy=0;entryX=0.5;entryY=0;entryDx=0;entryDy=0;" edge="1" parent="1" source="7pB_DVC5GZfGuAv-ibYx-49" target="7pB_DVC5GZfGuAv-ibYx-75">
          <mxGeometry relative="1" as="geometry">
            <mxPoint x="560" y="1030" as="targetPoint" />
            <Array as="points">
              <mxPoint x="540" y="900" />
              <mxPoint x="540" y="1260" />
              <mxPoint x="360" y="1260" />
            </Array>
          </mxGeometry>
        </mxCell>
        <mxCell id="7pB_DVC5GZfGuAv-ibYx-49" value="for (int i = 0; i &amp;lt; 8; ++i)" style="verticalLabelPosition=middle;verticalAlign=middle;html=1;shape=hexagon;perimeter=hexagonPerimeter2;arcSize=6;size=0.15;labelPosition=center;align=center;" vertex="1" parent="1">
          <mxGeometry x="260.09000000000003" y="880" width="200" height="40" as="geometry" />
        </mxCell>
        <mxCell id="7pB_DVC5GZfGuAv-ibYx-50" value="1" style="text;html=1;strokeColor=none;fillColor=none;align=center;verticalAlign=middle;whiteSpace=wrap;rounded=0;" vertex="1" parent="1">
          <mxGeometry x="330.09000000000003" y="920" width="30" height="30" as="geometry" />
        </mxCell>
        <mxCell id="7pB_DVC5GZfGuAv-ibYx-51" value="{" style="text;html=1;strokeColor=none;fillColor=none;align=center;verticalAlign=middle;whiteSpace=wrap;rounded=0;" vertex="1" parent="1">
          <mxGeometry x="360.09000000000003" y="920" width="30" height="30" as="geometry" />
        </mxCell>
        <mxCell id="7pB_DVC5GZfGuAv-ibYx-52" value="0" style="text;html=1;strokeColor=none;fillColor=none;align=center;verticalAlign=middle;whiteSpace=wrap;rounded=0;" vertex="1" parent="1">
          <mxGeometry x="460.09000000000003" y="870" width="30" height="30" as="geometry" />
        </mxCell>
        <mxCell id="7pB_DVC5GZfGuAv-ibYx-57" style="edgeStyle=orthogonalEdgeStyle;rounded=0;orthogonalLoop=1;jettySize=auto;html=1;exitX=0;exitY=0.5;exitDx=0;exitDy=0;exitPerimeter=0;entryX=0.5;entryY=0;entryDx=0;entryDy=0;" edge="1" source="7pB_DVC5GZfGuAv-ibYx-59" parent="1" target="7pB_DVC5GZfGuAv-ibYx-62">
          <mxGeometry relative="1" as="geometry">
            <mxPoint x="220.09" y="1030" as="targetPoint" />
          </mxGeometry>
        </mxCell>
        <mxCell id="7pB_DVC5GZfGuAv-ibYx-58" style="edgeStyle=orthogonalEdgeStyle;rounded=0;orthogonalLoop=1;jettySize=auto;html=1;exitX=1;exitY=0.5;exitDx=0;exitDy=0;exitPerimeter=0;" edge="1" source="7pB_DVC5GZfGuAv-ibYx-59" parent="1">
          <mxGeometry relative="1" as="geometry">
            <mxPoint x="360" y="1080" as="targetPoint" />
            <Array as="points">
              <mxPoint x="490" y="990" />
              <mxPoint x="490" y="1080" />
            </Array>
          </mxGeometry>
        </mxCell>
        <mxCell id="7pB_DVC5GZfGuAv-ibYx-59" value="if (((x + n - i) &amp;gt; 0) &amp;amp;&amp;amp; &lt;br&gt;((x + n - i) &amp;lt; 8))" style="strokeWidth=2;html=1;shape=mxgraph.flowchart.decision;whiteSpace=wrap;" vertex="1" parent="1">
          <mxGeometry x="260.09000000000003" y="960" width="200" height="60" as="geometry" />
        </mxCell>
        <mxCell id="7pB_DVC5GZfGuAv-ibYx-60" value="1" style="text;html=1;strokeColor=none;fillColor=none;align=center;verticalAlign=middle;whiteSpace=wrap;rounded=0;" vertex="1" parent="1">
          <mxGeometry x="230.09" y="960" width="30" height="30" as="geometry" />
        </mxCell>
        <mxCell id="7pB_DVC5GZfGuAv-ibYx-61" value="0" style="text;html=1;strokeColor=none;fillColor=none;align=center;verticalAlign=middle;whiteSpace=wrap;rounded=0;" vertex="1" parent="1">
          <mxGeometry x="460.09000000000003" y="960" width="30" height="30" as="geometry" />
        </mxCell>
        <mxCell id="7pB_DVC5GZfGuAv-ibYx-63" style="edgeStyle=orthogonalEdgeStyle;rounded=0;orthogonalLoop=1;jettySize=auto;html=1;exitX=0.5;exitY=1;exitDx=0;exitDy=0;" edge="1" parent="1" source="7pB_DVC5GZfGuAv-ibYx-62">
          <mxGeometry relative="1" as="geometry">
            <mxPoint x="360.0000000000001" y="1080" as="targetPoint" />
            <Array as="points">
              <mxPoint x="235" y="1080" />
            </Array>
          </mxGeometry>
        </mxCell>
        <mxCell id="7pB_DVC5GZfGuAv-ibYx-62" value="desk[(x + n - i) + n * 8 + 2][i] = 1;" style="rounded=1;whiteSpace=wrap;html=1;absoluteArcSize=1;arcSize=14;strokeWidth=2;" vertex="1" parent="1">
          <mxGeometry x="145" y="1020" width="180" height="40" as="geometry" />
        </mxCell>
        <mxCell id="7pB_DVC5GZfGuAv-ibYx-64" style="edgeStyle=orthogonalEdgeStyle;rounded=0;orthogonalLoop=1;jettySize=auto;html=1;exitX=0;exitY=0.5;exitDx=0;exitDy=0;exitPerimeter=0;entryX=0.5;entryY=0;entryDx=0;entryDy=0;" edge="1" parent="1" source="7pB_DVC5GZfGuAv-ibYx-66" target="7pB_DVC5GZfGuAv-ibYx-70">
          <mxGeometry relative="1" as="geometry">
            <mxPoint x="220.09" y="1170" as="targetPoint" />
          </mxGeometry>
        </mxCell>
        <mxCell id="7pB_DVC5GZfGuAv-ibYx-65" style="edgeStyle=orthogonalEdgeStyle;rounded=0;orthogonalLoop=1;jettySize=auto;html=1;exitX=1;exitY=0.5;exitDx=0;exitDy=0;exitPerimeter=0;" edge="1" parent="1" source="7pB_DVC5GZfGuAv-ibYx-66">
          <mxGeometry relative="1" as="geometry">
            <mxPoint x="360" y="1220" as="targetPoint" />
            <Array as="points">
              <mxPoint x="490" y="1130" />
              <mxPoint x="490" y="1220" />
            </Array>
          </mxGeometry>
        </mxCell>
        <mxCell id="7pB_DVC5GZfGuAv-ibYx-66" value="if (((n - x + i) &amp;gt; 0) &amp;amp;&amp;amp; &lt;br&gt;((n - x + i) &amp;lt; 8))" style="strokeWidth=2;html=1;shape=mxgraph.flowchart.decision;whiteSpace=wrap;" vertex="1" parent="1">
          <mxGeometry x="260.09000000000003" y="1100" width="200" height="60" as="geometry" />
        </mxCell>
        <mxCell id="7pB_DVC5GZfGuAv-ibYx-67" value="1" style="text;html=1;strokeColor=none;fillColor=none;align=center;verticalAlign=middle;whiteSpace=wrap;rounded=0;" vertex="1" parent="1">
          <mxGeometry x="230.09" y="1100" width="30" height="30" as="geometry" />
        </mxCell>
        <mxCell id="7pB_DVC5GZfGuAv-ibYx-68" value="0" style="text;html=1;strokeColor=none;fillColor=none;align=center;verticalAlign=middle;whiteSpace=wrap;rounded=0;" vertex="1" parent="1">
          <mxGeometry x="460.09000000000003" y="1100" width="30" height="30" as="geometry" />
        </mxCell>
        <mxCell id="7pB_DVC5GZfGuAv-ibYx-69" style="edgeStyle=orthogonalEdgeStyle;rounded=0;orthogonalLoop=1;jettySize=auto;html=1;exitX=0.5;exitY=1;exitDx=0;exitDy=0;" edge="1" parent="1" source="7pB_DVC5GZfGuAv-ibYx-70">
          <mxGeometry relative="1" as="geometry">
            <mxPoint x="360.0000000000001" y="1220" as="targetPoint" />
            <Array as="points">
              <mxPoint x="235" y="1220" />
            </Array>
          </mxGeometry>
        </mxCell>
        <mxCell id="7pB_DVC5GZfGuAv-ibYx-70" value="desk[(n - x + i) + n * 8 + 2][i] = 1;" style="rounded=1;whiteSpace=wrap;html=1;absoluteArcSize=1;arcSize=14;strokeWidth=2;" vertex="1" parent="1">
          <mxGeometry x="145" y="1160" width="180" height="40" as="geometry" />
        </mxCell>
        <mxCell id="7pB_DVC5GZfGuAv-ibYx-71" value="" style="endArrow=classic;html=1;rounded=0;" edge="1" parent="1" target="7pB_DVC5GZfGuAv-ibYx-66">
          <mxGeometry width="50" height="50" relative="1" as="geometry">
            <mxPoint x="360" y="1080" as="sourcePoint" />
            <mxPoint x="340" y="920" as="targetPoint" />
          </mxGeometry>
        </mxCell>
        <mxCell id="7pB_DVC5GZfGuAv-ibYx-72" value="" style="endArrow=classic;html=1;rounded=0;" edge="1" parent="1">
          <mxGeometry width="50" height="50" relative="1" as="geometry">
            <mxPoint x="360" y="1220" as="sourcePoint" />
            <mxPoint x="260" y="900" as="targetPoint" />
            <Array as="points">
              <mxPoint x="360" y="1240" />
              <mxPoint x="120" y="1240" />
              <mxPoint x="120" y="900" />
            </Array>
          </mxGeometry>
        </mxCell>
        <mxCell id="7pB_DVC5GZfGuAv-ibYx-73" style="edgeStyle=orthogonalEdgeStyle;rounded=0;orthogonalLoop=1;jettySize=auto;html=1;exitX=0.5;exitY=1;exitDx=0;exitDy=0;" edge="1" source="7pB_DVC5GZfGuAv-ibYx-75" parent="1">
          <mxGeometry relative="1" as="geometry">
            <mxPoint x="360.09" y="1360" as="targetPoint" />
          </mxGeometry>
        </mxCell>
        <mxCell id="7pB_DVC5GZfGuAv-ibYx-74" style="edgeStyle=orthogonalEdgeStyle;rounded=0;orthogonalLoop=1;jettySize=auto;html=1;exitX=1;exitY=0.5;exitDx=0;exitDy=0;" edge="1" source="7pB_DVC5GZfGuAv-ibYx-75" parent="1">
          <mxGeometry relative="1" as="geometry">
            <mxPoint x="360" y="1460" as="targetPoint" />
            <Array as="points">
              <mxPoint x="500" y="1300" />
              <mxPoint x="500" y="1440" />
              <mxPoint x="360" y="1440" />
            </Array>
          </mxGeometry>
        </mxCell>
        <mxCell id="7pB_DVC5GZfGuAv-ibYx-75" value="for (int i = 0; i &amp;lt;= n; ++i)" style="verticalLabelPosition=middle;verticalAlign=middle;html=1;shape=hexagon;perimeter=hexagonPerimeter2;arcSize=6;size=0.15;labelPosition=center;align=center;" vertex="1" parent="1">
          <mxGeometry x="260.09" y="1280" width="200" height="40" as="geometry" />
        </mxCell>
        <mxCell id="7pB_DVC5GZfGuAv-ibYx-76" value="1" style="text;html=1;strokeColor=none;fillColor=none;align=center;verticalAlign=middle;whiteSpace=wrap;rounded=0;" vertex="1" parent="1">
          <mxGeometry x="330.09" y="1320" width="30" height="30" as="geometry" />
        </mxCell>
        <mxCell id="7pB_DVC5GZfGuAv-ibYx-77" value="{" style="text;html=1;strokeColor=none;fillColor=none;align=center;verticalAlign=middle;whiteSpace=wrap;rounded=0;" vertex="1" parent="1">
          <mxGeometry x="360.09" y="1320" width="30" height="30" as="geometry" />
        </mxCell>
        <mxCell id="7pB_DVC5GZfGuAv-ibYx-78" value="0" style="text;html=1;strokeColor=none;fillColor=none;align=center;verticalAlign=middle;whiteSpace=wrap;rounded=0;" vertex="1" parent="1">
          <mxGeometry x="460.09" y="1270" width="30" height="30" as="geometry" />
        </mxCell>
        <mxCell id="7pB_DVC5GZfGuAv-ibYx-80" style="edgeStyle=orthogonalEdgeStyle;rounded=0;orthogonalLoop=1;jettySize=auto;html=1;exitX=0.5;exitY=1;exitDx=0;exitDy=0;entryX=0;entryY=0.5;entryDx=0;entryDy=0;" edge="1" parent="1" source="7pB_DVC5GZfGuAv-ibYx-79" target="7pB_DVC5GZfGuAv-ibYx-75">
          <mxGeometry relative="1" as="geometry">
            <Array as="points">
              <mxPoint x="360" y="1420" />
              <mxPoint x="240" y="1420" />
              <mxPoint x="240" y="1300" />
            </Array>
          </mxGeometry>
        </mxCell>
        <mxCell id="7pB_DVC5GZfGuAv-ibYx-79" value="desk[i + n * 8 + 2][desk[1][i]] = 8;" style="rounded=1;whiteSpace=wrap;html=1;absoluteArcSize=1;arcSize=14;strokeWidth=2;" vertex="1" parent="1">
          <mxGeometry x="270" y="1360" width="180" height="40" as="geometry" />
        </mxCell>
        <mxCell id="7pB_DVC5GZfGuAv-ibYx-81" value="{" style="text;html=1;strokeColor=none;fillColor=none;align=center;verticalAlign=middle;whiteSpace=wrap;rounded=0;" vertex="1" parent="1">
          <mxGeometry x="190" y="190" width="30" height="30" as="geometry" />
        </mxCell>
        <mxCell id="7pB_DVC5GZfGuAv-ibYx-82" value="}" style="text;html=1;strokeColor=none;fillColor=none;align=center;verticalAlign=middle;whiteSpace=wrap;rounded=0;" vertex="1" parent="1">
          <mxGeometry x="360.09000000000003" y="450" width="30" height="30" as="geometry" />
        </mxCell>
        <mxCell id="7pB_DVC5GZfGuAv-ibYx-83" value="}" style="text;html=1;strokeColor=none;fillColor=none;align=center;verticalAlign=middle;whiteSpace=wrap;rounded=0;" vertex="1" parent="1">
          <mxGeometry x="220.00000000000003" y="430" width="30" height="30" as="geometry" />
        </mxCell>
        <mxCell id="7pB_DVC5GZfGuAv-ibYx-84" value="}" style="text;html=1;strokeColor=none;fillColor=none;align=center;verticalAlign=middle;whiteSpace=wrap;rounded=0;" vertex="1" parent="1">
          <mxGeometry x="330.09000000000003" y="440" width="30" height="30" as="geometry" />
        </mxCell>
        <mxCell id="7pB_DVC5GZfGuAv-ibYx-85" value="}" style="text;html=1;strokeColor=none;fillColor=none;align=center;verticalAlign=middle;whiteSpace=wrap;rounded=0;" vertex="1" parent="1">
          <mxGeometry x="360.09000000000003" y="640" width="30" height="30" as="geometry" />
        </mxCell>
        <mxCell id="7pB_DVC5GZfGuAv-ibYx-86" value="}" style="text;html=1;strokeColor=none;fillColor=none;align=center;verticalAlign=middle;whiteSpace=wrap;rounded=0;" vertex="1" parent="1">
          <mxGeometry x="360.09000000000003" y="820" width="30" height="30" as="geometry" />
        </mxCell>
        <mxCell id="7pB_DVC5GZfGuAv-ibYx-87" value="}" style="text;html=1;strokeColor=none;fillColor=none;align=center;verticalAlign=middle;whiteSpace=wrap;rounded=0;" vertex="1" parent="1">
          <mxGeometry x="360.09000000000003" y="1220" width="30" height="30" as="geometry" />
        </mxCell>
        <mxCell id="7pB_DVC5GZfGuAv-ibYx-88" value="}" style="text;html=1;strokeColor=none;fillColor=none;align=center;verticalAlign=middle;whiteSpace=wrap;rounded=0;" vertex="1" parent="1">
          <mxGeometry x="360.09000000000003" y="1400" width="30" height="30" as="geometry" />
        </mxCell>
        <mxCell id="7pB_DVC5GZfGuAv-ibYx-89" value="}" style="text;html=1;strokeColor=none;fillColor=none;align=center;verticalAlign=middle;whiteSpace=wrap;rounded=0;" vertex="1" parent="1">
          <mxGeometry x="360.09000000000003" y="1440" width="30" height="30" as="geometry" />
        </mxCell>
        <mxCell id="7pB_DVC5GZfGuAv-ibYx-90" value="{" style="text;html=1;strokeColor=none;fillColor=none;align=center;verticalAlign=middle;whiteSpace=wrap;rounded=0;" vertex="1" parent="1">
          <mxGeometry x="280" y="80" width="30" height="30" as="geometry" />
        </mxCell>
        <mxCell id="7pB_DVC5GZfGuAv-ibYx-93" value="{" style="text;html=1;strokeColor=none;fillColor=none;align=center;verticalAlign=middle;whiteSpace=wrap;rounded=0;" vertex="1" parent="1">
          <mxGeometry x="205" y="990" width="30" height="30" as="geometry" />
        </mxCell>
        <mxCell id="7pB_DVC5GZfGuAv-ibYx-94" value="}" style="text;html=1;strokeColor=none;fillColor=none;align=center;verticalAlign=middle;whiteSpace=wrap;rounded=0;" vertex="1" parent="1">
          <mxGeometry x="325" y="1050" width="30" height="30" as="geometry" />
        </mxCell>
        <mxCell id="7pB_DVC5GZfGuAv-ibYx-95" value="{" style="text;html=1;strokeColor=none;fillColor=none;align=center;verticalAlign=middle;whiteSpace=wrap;rounded=0;" vertex="1" parent="1">
          <mxGeometry x="205" y="1130" width="30" height="30" as="geometry" />
        </mxCell>
        <mxCell id="7pB_DVC5GZfGuAv-ibYx-96" value="}" style="text;html=1;strokeColor=none;fillColor=none;align=center;verticalAlign=middle;whiteSpace=wrap;rounded=0;" vertex="1" parent="1">
          <mxGeometry x="325" y="1190" width="30" height="30" as="geometry" />
        </mxCell>
      </root>
    </mxGraphModel>
  </diagram>
</mxfile>
